<svg xmlns="http://www.w3.org/2000/svg" xmlns:xlink="http://www.w3.org/1999/xlink" width="500" zoomAndPan="magnify" viewBox="0 0 375 374.999991" height="500" preserveAspectRatio="xMidYMid meet" version="1.0"><defs><g/><clipPath id="id1"><path d="M 118.617188 100.769531 L 276.867188 100.769531 L 276.867188 259.019531 L 118.617188 259.019531 Z M 118.617188 100.769531 " clip-rule="nonzero"/></clipPath><clipPath id="id2"><path d="M 83 97 L 329 97 L 329 254 L 83 254 Z M 83 97 " clip-rule="nonzero"/></clipPath><clipPath id="id3"><path d="M 69.914062 204.117188 L 294.792969 76.132812 L 348.585938 170.648438 L 123.703125 298.632812 Z M 69.914062 204.117188 " clip-rule="nonzero"/></clipPath><clipPath id="id4"><path d="M 69.914062 204.117188 L 294.792969 76.132812 L 348.585938 170.648438 L 123.703125 298.632812 Z M 69.914062 204.117188 " clip-rule="nonzero"/></clipPath></defs><g clip-path="url(#id1)"><path fill="#3c6ca8" d="M 168.820312 246.726562 C 170.832031 247.871094 179.777344 252.886719 187.953125 256.171875 C 178.574219 254.960938 169.335938 251.972656 161.058594 247.46875 Z M 141.410156 206.128906 L 127.734375 211.710938 C 123.160156 201.679688 120.835938 190.980469 120.835938 179.894531 C 120.835938 169.472656 122.898438 159.351562 126.96875 149.820312 C 129.890625 148.871094 133.058594 148.300781 134.527344 148.066406 C 136.742188 159.585938 143.53125 168.199219 145.746094 170.757812 C 144.539062 174.21875 140.941406 186.300781 141.410156 206.128906 Z M 156.769531 122.429688 C 144.148438 129.351562 136.320312 142.828125 134.710938 145.789062 C 133.550781 145.960938 130.9375 146.394531 128.164062 147.148438 C 134.496094 133.742188 144.480469 122.519531 157.089844 114.640625 Z M 274.644531 179.894531 C 274.644531 186.664062 273.753906 193.394531 272 199.898438 C 267.292969 202.375 258.816406 203.0625 255.957031 203.230469 C 252.585938 189.0625 244.226562 178.648438 242.328125 176.417969 C 244.703125 168.019531 245.722656 148.9375 245.992188 142.839844 C 247.785156 142.796875 254.113281 142.585938 257.988281 141.71875 C 260.367188 144.292969 270.902344 156.0625 273.125 164.660156 C 274.132812 169.652344 274.644531 174.78125 274.644531 179.894531 Z M 232.835938 248.308594 C 233.449219 243.628906 234.167969 235.429688 234.332031 233.515625 C 250.082031 219.335938 254.773438 208.664062 255.90625 205.460938 C 258.402344 205.328125 265.867188 204.777344 271.191406 202.699219 C 265.089844 222.300781 251.152344 238.875 232.835938 248.308594 Z M 201.617188 221.074219 C 213.589844 232.042969 227.597656 233.777344 232.058594 234.046875 C 231.789062 237.117188 230.992188 245.902344 230.421875 249.5 C 220.171875 254.335938 209.199219 256.789062 197.808594 256.800781 C 189.941406 255.894531 173.691406 246.921875 170.152344 244.925781 L 169.648438 231.988281 C 173.695312 230.917969 191.558594 226.058594 201.617188 221.074219 Z M 168.6875 229.945312 C 158.273438 223.4375 145.375 208.488281 143.640625 206.449219 C 143.109375 186.234375 146.980469 173.957031 147.878906 171.390625 L 175.53125 161.691406 L 205.433594 187.21875 L 200.789062 219.003906 C 190.523438 224.140625 171.375 229.242188 168.6875 229.945312 Z M 216.023438 119.09375 C 201.871094 119.722656 185.867188 127.226562 182.4375 128.914062 C 172.671875 123.050781 162.363281 122.148438 159.011719 122.015625 L 159.367188 113.273438 C 171 106.546875 184.265625 102.992188 197.742188 102.992188 C 204.882812 102.992188 211.964844 103.980469 218.796875 105.929688 Z M 240.183594 175.832031 C 230.1875 179.375 209.835938 184.777344 206.902344 185.554688 L 176.992188 160.019531 L 183.359375 130.933594 C 186.742188 129.265625 202.730469 121.726562 216.648438 121.289062 C 218.679688 122.496094 233.882812 131.664062 243.796875 142.152344 C 243.664062 145.195312 242.628906 167.207031 240.183594 175.832031 Z M 259.496094 140.074219 L 259.789062 134.519531 C 263.972656 140.214844 267.324219 146.410156 269.78125 152.96875 C 265.675781 146.804688 260.714844 141.378906 259.496094 140.074219 Z M 275.050781 164.34375 L 275.316406 164.28125 C 275.308594 164.246094 275.296875 164.1875 275.296875 164.183594 C 271.730469 146.558594 262.082031 130.484375 248.121094 118.929688 C 241.175781 113.179688 233.386719 108.695312 224.96875 105.601562 C 216.257812 102.394531 207.09375 100.773438 197.742188 100.773438 C 154.113281 100.773438 118.617188 136.265625 118.617188 179.894531 C 118.617188 223.527344 154.113281 259.019531 197.742188 259.019531 C 241.371094 259.019531 276.867188 223.527344 276.867188 179.894531 C 276.867188 174.65625 276.34375 169.40625 275.316406 164.289062 L 275.050781 164.34375 " fill-opacity="1" fill-rule="nonzero"/></g><g clip-path="url(#id2)"><g clip-path="url(#id3)"><g clip-path="url(#id4)"><path fill="#fffcf6" d="M 313.238281 112.777344 C 311.335938 110.925781 309.296875 109.25 307.179688 107.75 C 306.644531 107.386719 306.109375 107.023438 305.574219 106.660156 C 305.046875 106.324219 304.53125 106.011719 304.011719 105.691406 C 303.753906 105.53125 303.496094 105.367188 303.234375 105.214844 L 302.433594 104.765625 C 301.894531 104.46875 301.375 104.15625 300.828125 103.878906 C 298.660156 102.730469 296.40625 101.738281 294.113281 100.871094 C 291.8125 100.007812 289.445312 99.324219 287.078125 98.78125 C 284.703125 98.230469 282.304688 97.886719 279.925781 97.675781 C 278.738281 97.5625 277.554688 97.523438 276.375 97.484375 C 275.203125 97.476562 274.03125 97.46875 272.878906 97.53125 C 270.570312 97.632812 268.304688 97.863281 266.117188 98.234375 C 263.925781 98.597656 261.792969 99.058594 259.75 99.636719 L 258.984375 99.84375 L 258.226562 100.074219 C 257.722656 100.230469 257.222656 100.375 256.730469 100.539062 C 255.75 100.875 254.769531 101.199219 253.828125 101.570312 C 252.875 101.917969 251.957031 102.308594 251.039062 102.6875 C 250.578125 102.878906 250.132812 103.089844 249.6875 103.285156 C 249.238281 103.484375 248.792969 103.683594 248.363281 103.898438 C 247.925781 104.105469 247.492188 104.316406 247.0625 104.523438 C 246.636719 104.742188 246.210938 104.960938 245.792969 105.171875 C 244.945312 105.601562 244.136719 106.058594 243.324219 106.503906 C 241.722656 107.414062 240.167969 108.34375 238.695312 109.308594 C 232.777344 113.132812 227.851562 117.25 223.648438 121.203125 C 219.445312 125.167969 215.964844 128.992188 213.070312 132.460938 C 210.179688 135.929688 207.863281 139.035156 206.042969 141.625 C 204.226562 144.210938 202.902344 146.277344 202.015625 147.6875 C 201.136719 149.097656 200.695312 149.855469 200.695312 149.855469 C 200.695312 149.855469 201.242188 149.121094 202.304688 147.746094 C 203.367188 146.375 204.949219 144.367188 207.074219 141.871094 C 208.136719 140.621094 209.335938 139.25 210.679688 137.78125 C 212.019531 136.308594 213.5 134.734375 215.140625 133.089844 C 218.410156 129.792969 222.277344 126.171875 226.851562 122.492188 C 222.925781 125.828125 219.164062 129.464844 215.597656 133.359375 C 211.148438 138.207031 207.15625 143.273438 203.582031 148.457031 C 201.804688 151.050781 200.128906 153.675781 198.570312 156.332031 C 198.183594 157 197.792969 157.660156 197.425781 158.332031 C 197.238281 158.667969 197.054688 159 196.867188 159.332031 C 196.691406 159.660156 196.519531 159.984375 196.339844 160.308594 C 195.632812 161.601562 194.960938 162.890625 194.292969 164.171875 C 191.644531 169.285156 189.265625 174.226562 186.992188 178.902344 C 184.722656 183.582031 182.5625 188 180.421875 192.089844 C 179.363281 194.144531 178.289062 196.097656 177.238281 197.988281 C 176.699219 198.917969 176.1875 199.851562 175.652344 200.742188 C 175.390625 201.191406 175.125 201.632812 174.867188 202.070312 C 174.597656 202.507812 174.335938 202.9375 174.074219 203.367188 C 171.976562 206.78125 169.890625 209.832031 167.851562 212.503906 C 165.816406 215.179688 163.835938 217.484375 161.996094 219.4375 C 160.144531 221.386719 158.4375 222.988281 156.964844 224.292969 C 155.839844 225.226562 154.730469 226.128906 153.601562 226.972656 C 152.476562 227.8125 151.351562 228.597656 150.242188 229.347656 C 148.015625 230.820312 145.839844 232.105469 143.746094 233.199219 C 139.558594 235.386719 135.730469 236.828125 132.542969 237.738281 C 130.945312 238.203125 129.507812 238.523438 128.257812 238.765625 C 127.941406 238.824219 127.640625 238.878906 127.351562 238.933594 C 127.058594 238.980469 126.78125 239.023438 126.515625 239.0625 C 125.980469 239.15625 125.496094 239.203125 125.0625 239.257812 C 124.847656 239.285156 124.640625 239.308594 124.449219 239.332031 C 124.257812 239.347656 124.082031 239.363281 123.917969 239.378906 C 123.585938 239.40625 123.304688 239.429688 123.082031 239.449219 C 122.636719 239.476562 122.40625 239.488281 122.40625 239.488281 C 122.40625 239.488281 122.523438 239.496094 122.75 239.507812 C 122.980469 239.53125 123.324219 239.539062 123.777344 239.554688 C 124.003906 239.558594 124.257812 239.566406 124.539062 239.574219 C 124.820312 239.574219 125.128906 239.570312 125.464844 239.566406 C 125.632812 239.566406 125.804688 239.5625 125.988281 239.5625 C 126.167969 239.554688 126.355469 239.546875 126.546875 239.539062 C 126.9375 239.515625 127.351562 239.511719 127.789062 239.46875 C 129.546875 239.351562 131.71875 239.085938 134.238281 238.550781 C 134.871094 238.425781 135.519531 238.257812 136.195312 238.101562 C 136.863281 237.917969 137.5625 237.75 138.265625 237.527344 C 139.691406 237.117188 141.1875 236.609375 142.746094 236.015625 C 136.253906 239.074219 129.832031 240.765625 124.066406 241.183594 C 118.296875 241.617188 113.226562 240.75 109.300781 239.386719 C 105.363281 238.023438 102.582031 236.179688 100.851562 234.761719 C 99.976562 234.058594 99.355469 233.460938 98.945312 233.050781 C 98.734375 232.847656 98.578125 232.691406 98.480469 232.578125 C 98.382812 232.46875 98.332031 232.414062 98.332031 232.414062 C 98.332031 232.414062 98.375 232.472656 98.460938 232.59375 C 98.546875 232.714844 98.679688 232.890625 98.867188 233.113281 C 99.230469 233.5625 99.785156 234.230469 100.585938 235.03125 C 101.375 235.84375 102.4375 236.769531 103.78125 237.742188 C 105.128906 238.710938 106.777344 239.703125 108.746094 240.59375 C 106.523438 239.761719 104.417969 238.710938 102.519531 237.417969 C 102.28125 237.253906 102.046875 237.09375 101.808594 236.929688 C 101.582031 236.757812 101.351562 236.582031 101.125 236.414062 L 100.785156 236.15625 L 100.460938 235.882812 C 100.242188 235.699219 100.027344 235.515625 99.8125 235.335938 C 98.972656 234.578125 98.167969 233.796875 97.449219 232.953125 C 96.710938 232.128906 96.070312 231.238281 95.457031 230.34375 C 94.875 229.429688 94.320312 228.507812 93.871094 227.550781 C 92.941406 225.644531 92.269531 223.671875 91.855469 221.710938 C 91.003906 217.78125 91.089844 213.945312 91.640625 210.503906 C 91.921875 208.777344 92.292969 207.15625 92.800781 205.613281 C 93.054688 204.847656 93.277344 204.082031 93.597656 203.371094 C 93.894531 202.65625 94.15625 201.941406 94.511719 201.292969 C 95.796875 198.625 97.308594 196.410156 98.800781 194.644531 C 98.984375 194.421875 99.15625 194.195312 99.339844 193.988281 C 99.527344 193.78125 99.710938 193.582031 99.894531 193.386719 C 100.257812 192.992188 100.601562 192.609375 100.945312 192.257812 C 101.296875 191.917969 101.636719 191.59375 101.957031 191.289062 C 102.28125 190.980469 102.582031 190.679688 102.890625 190.425781 C 103.5 189.917969 104.03125 189.445312 104.507812 189.066406 C 104.992188 188.699219 105.402344 188.390625 105.734375 188.140625 C 106.0625 187.886719 106.3125 187.695312 106.488281 187.585938 C 106.660156 187.464844 106.75 187.40625 106.75 187.40625 C 106.75 187.40625 106.59375 187.492188 106.285156 187.65625 C 105.984375 187.828125 105.542969 188.105469 104.957031 188.460938 C 104.667969 188.644531 104.332031 188.832031 103.984375 189.074219 C 103.636719 189.316406 103.253906 189.582031 102.839844 189.871094 C 102.632812 190.015625 102.414062 190.164062 102.195312 190.324219 C 101.980469 190.492188 101.761719 190.671875 101.527344 190.851562 C 101.296875 191.035156 101.0625 191.222656 100.816406 191.417969 C 100.570312 191.613281 100.316406 191.8125 100.074219 192.039062 C 98.0625 193.773438 95.726562 196.164062 93.632812 199.472656 C 93.128906 200.304688 92.578125 201.160156 92.128906 202.109375 C 91.898438 202.582031 91.644531 203.054688 91.421875 203.546875 C 91.214844 204.050781 91.007812 204.558594 90.796875 205.078125 C 90.691406 205.335938 90.578125 205.59375 90.480469 205.859375 C 90.390625 206.125 90.300781 206.390625 90.207031 206.65625 C 90.121094 206.921875 90.023438 207.191406 89.9375 207.464844 C 89.855469 207.742188 89.777344 208.019531 89.695312 208.300781 C 89.359375 209.417969 89.09375 210.597656 88.863281 211.820312 C 89.0625 210.054688 89.410156 208.359375 89.824219 206.738281 C 89.9375 206.332031 90.03125 205.929688 90.160156 205.527344 C 90.289062 205.125 90.425781 204.726562 90.554688 204.328125 C 90.6875 203.933594 90.816406 203.535156 90.953125 203.144531 C 91.113281 202.761719 91.273438 202.382812 91.429688 202.007812 C 92.695312 198.988281 94.335938 196.320312 96.109375 194.039062 C 96.570312 193.480469 97.019531 192.933594 97.464844 192.394531 C 97.929688 191.882812 98.402344 191.390625 98.859375 190.898438 C 98.976562 190.777344 99.089844 190.65625 99.207031 190.535156 C 99.324219 190.421875 99.445312 190.308594 99.5625 190.195312 C 99.800781 189.972656 100.039062 189.753906 100.269531 189.53125 C 100.503906 189.3125 100.738281 189.09375 100.96875 188.882812 C 101.203125 188.671875 101.441406 188.480469 101.675781 188.28125 C 102.148438 187.890625 102.605469 187.496094 103.066406 187.136719 C 103.535156 186.789062 103.992188 186.445312 104.441406 186.113281 C 104.886719 185.769531 105.339844 185.476562 105.78125 185.1875 C 106.21875 184.894531 106.648438 184.613281 107.070312 184.335938 C 107.496094 184.082031 107.914062 183.835938 108.320312 183.59375 C 108.726562 183.359375 109.117188 183.109375 109.511719 182.914062 C 109.902344 182.707031 110.277344 182.503906 110.644531 182.3125 C 111.007812 182.121094 111.359375 181.925781 111.707031 181.769531 C 112.398438 181.441406 113.039062 181.140625 113.625 180.863281 C 114.21875 180.613281 114.761719 180.386719 115.242188 180.183594 C 115.488281 180.082031 115.710938 179.984375 115.925781 179.898438 C 116.140625 179.816406 116.34375 179.742188 116.53125 179.671875 C 116.902344 179.535156 117.214844 179.417969 117.46875 179.324219 C 117.972656 179.136719 118.234375 179.039062 118.234375 179.039062 C 118.234375 179.039062 117.886719 179.128906 117.214844 179.308594 C 116.875 179.394531 116.457031 179.507812 115.960938 179.640625 C 115.464844 179.78125 114.894531 179.964844 114.25 180.167969 C 113.925781 180.273438 113.582031 180.371094 113.222656 180.503906 C 112.867188 180.636719 112.488281 180.773438 112.09375 180.917969 C 111.703125 181.066406 111.285156 181.203125 110.859375 181.382812 C 110.433594 181.566406 109.992188 181.753906 109.53125 181.945312 C 109.300781 182.042969 109.066406 182.144531 108.828125 182.242188 C 108.589844 182.351562 108.355469 182.472656 108.109375 182.589844 C 107.625 182.824219 107.117188 183.066406 106.597656 183.320312 C 106.082031 183.585938 105.558594 183.886719 105.015625 184.183594 C 104.746094 184.335938 104.46875 184.488281 104.191406 184.644531 C 103.917969 184.816406 103.640625 184.988281 103.359375 185.160156 C 103.078125 185.339844 102.796875 185.519531 102.507812 185.699219 C 102.363281 185.789062 102.21875 185.882812 102.074219 185.972656 C 101.929688 186.070312 101.789062 186.171875 101.644531 186.273438 C 101.070312 186.683594 100.480469 187.097656 99.882812 187.539062 C 99.300781 188.011719 98.707031 188.492188 98.097656 188.984375 C 97.5 189.496094 96.914062 190.054688 96.304688 190.613281 C 93.929688 192.917969 91.578125 195.773438 89.644531 199.238281 L 89.457031 199.558594 L 89.289062 199.894531 C 89.179688 200.117188 89.066406 200.34375 88.953125 200.566406 C 88.730469 201.019531 88.507812 201.476562 88.28125 201.9375 C 87.878906 202.875 87.496094 203.847656 87.121094 204.828125 C 86.445312 206.746094 85.878906 208.796875 85.480469 210.96875 C 85.078125 213.144531 84.851562 215.445312 84.867188 217.847656 C 84.886719 220.242188 85.144531 222.738281 85.746094 225.257812 C 84.589844 221.265625 84.292969 217.5625 84.378906 214.417969 C 84.46875 211.269531 84.902344 208.644531 85.367188 206.570312 C 85.472656 206.046875 85.609375 205.570312 85.722656 205.113281 C 85.777344 204.886719 85.835938 204.667969 85.890625 204.457031 C 85.945312 204.246094 86.019531 204.03125 86.078125 203.828125 C 86.339844 203.023438 86.558594 202.34375 86.734375 201.796875 C 86.820312 201.519531 86.917969 201.289062 87 201.082031 C 87.082031 200.882812 87.148438 200.710938 87.203125 200.574219 C 87.316406 200.300781 87.371094 200.164062 87.371094 200.164062 C 87.371094 200.164062 87.25 200.402344 87.011719 200.871094 C 86.757812 201.332031 86.460938 202.050781 86.070312 203 C 85.976562 203.238281 85.871094 203.488281 85.761719 203.75 C 85.652344 204.019531 85.542969 204.300781 85.449219 204.582031 C 85.351562 204.871094 85.242188 205.167969 85.136719 205.480469 C 85.082031 205.640625 85.027344 205.800781 84.972656 205.960938 C 84.921875 206.128906 84.871094 206.300781 84.816406 206.476562 C 84.714844 206.820312 84.605469 207.183594 84.496094 207.558594 C 84.386719 207.933594 84.292969 208.335938 84.1875 208.742188 C 83.972656 209.554688 83.804688 210.449219 83.621094 211.398438 C 83.285156 213.300781 83.046875 215.476562 83.042969 217.910156 C 83.039062 220.34375 83.265625 223.046875 83.945312 225.921875 C 84.03125 226.277344 84.121094 226.640625 84.207031 227.003906 C 84.308594 227.367188 84.421875 227.734375 84.527344 228.101562 C 84.738281 228.839844 85.015625 229.574219 85.285156 230.324219 C 85.425781 230.699219 85.585938 231.066406 85.742188 231.445312 C 85.894531 231.820312 86.058594 232.195312 86.242188 232.566406 C 86.421875 232.941406 86.601562 233.3125 86.785156 233.691406 C 86.988281 234.0625 87.191406 234.433594 87.394531 234.808594 C 89.070312 237.785156 91.328125 240.679688 94.09375 243.207031 C 95.480469 244.460938 96.972656 245.65625 98.578125 246.703125 C 100.179688 247.753906 101.875 248.71875 103.640625 249.542969 C 105.402344 250.355469 107.246094 251.082031 109.109375 251.660156 C 110.980469 252.230469 112.921875 252.738281 114.90625 253.078125 C 116.890625 253.421875 118.921875 253.671875 120.972656 253.773438 C 123.019531 253.875 125.085938 253.863281 127.160156 253.738281 C 131.292969 253.464844 135.4375 252.761719 139.488281 251.644531 C 141.515625 251.09375 143.527344 250.445312 145.511719 249.710938 C 147.496094 248.972656 149.460938 248.148438 151.394531 247.242188 C 155.273438 245.4375 159.042969 243.300781 162.691406 240.851562 C 163.148438 240.546875 163.601562 240.234375 164.054688 239.917969 C 164.507812 239.605469 164.957031 239.277344 165.410156 238.941406 C 166.308594 238.273438 167.222656 237.613281 168.089844 236.898438 C 168.53125 236.542969 168.972656 236.191406 169.414062 235.839844 C 169.839844 235.472656 170.269531 235.105469 170.699219 234.734375 C 171.125 234.367188 171.566406 234.003906 171.980469 233.621094 C 172.394531 233.234375 172.8125 232.851562 173.230469 232.46875 L 173.855469 231.890625 L 174.460938 231.292969 C 174.867188 230.898438 175.269531 230.5 175.675781 230.101562 C 176.476562 229.296875 177.25 228.46875 178.03125 227.640625 C 179.554688 225.964844 181.054688 224.253906 182.460938 222.484375 C 185.296875 218.957031 187.84375 215.359375 190.140625 211.773438 C 192.441406 208.183594 194.511719 204.609375 196.433594 201.105469 C 200.269531 194.097656 203.5 187.371094 206.546875 181.152344 C 208.070312 178.042969 209.539062 175.0625 210.984375 172.21875 C 211.710938 170.804688 212.4375 169.40625 213.140625 168.078125 C 213.820312 166.796875 214.523438 165.546875 215.230469 164.320312 C 218.085938 159.410156 221.113281 154.964844 224.0625 151.058594 C 227.007812 147.148438 229.882812 143.769531 232.507812 140.914062 C 233.824219 139.488281 235.074219 138.195312 236.25 137.027344 C 237.425781 135.871094 238.515625 134.820312 239.515625 133.917969 C 241.511719 132.082031 243.121094 130.753906 244.214844 129.855469 C 244.765625 129.414062 245.1875 129.078125 245.46875 128.851562 C 245.753906 128.632812 245.902344 128.519531 245.902344 128.519531 C 245.902344 128.519531 245.839844 128.558594 245.714844 128.628906 C 245.589844 128.699219 245.40625 128.808594 245.167969 128.957031 C 244.6875 129.257812 243.96875 129.691406 243.050781 130.300781 C 242.125 130.898438 241.003906 131.671875 239.691406 132.613281 C 238.386719 133.566406 236.898438 134.691406 235.265625 136.019531 C 232.007812 138.679688 228.171875 142.148438 224.097656 146.523438 C 220.023438 150.882812 215.695312 156.148438 211.609375 162.296875 C 214.511719 157.128906 217.171875 153.191406 219.023438 150.527344 C 219.960938 149.203125 220.695312 148.191406 221.195312 147.511719 C 221.699219 146.832031 221.960938 146.480469 221.960938 146.480469 C 221.960938 146.480469 221.851562 146.597656 221.636719 146.824219 C 221.425781 147.050781 221.101562 147.382812 220.699219 147.835938 C 219.871094 148.730469 218.671875 150.066406 217.171875 151.847656 C 215.671875 153.628906 213.882812 155.859375 211.925781 158.546875 C 210.945312 159.894531 209.929688 161.355469 208.890625 162.933594 C 208.367188 163.722656 207.851562 164.535156 207.316406 165.394531 C 206.785156 166.265625 206.234375 167.152344 205.683594 168.082031 C 206.027344 167.394531 206.371094 166.71875 206.71875 166.050781 C 206.886719 165.71875 207.058594 165.390625 207.226562 165.0625 C 207.398438 164.738281 207.566406 164.421875 207.730469 164.105469 C 208.402344 162.835938 209.085938 161.613281 209.765625 160.429688 C 211.132812 158.066406 212.496094 155.867188 213.828125 153.832031 C 216.492188 149.769531 219 146.371094 221.136719 143.652344 C 223.269531 140.929688 225.027344 138.878906 226.238281 137.5 C 226.847656 136.8125 227.3125 136.289062 227.628906 135.9375 C 227.945312 135.589844 228.109375 135.410156 228.109375 135.410156 C 228.109375 135.410156 227.214844 136.167969 225.589844 137.675781 C 223.972656 139.183594 221.613281 141.441406 218.792969 144.515625 C 224.511719 137.332031 230.46875 131.257812 236.210938 126.386719 C 241.957031 121.515625 247.507812 117.871094 252.355469 115.351562 C 257.203125 112.824219 261.316406 111.398438 264.171875 110.609375 C 264.886719 110.414062 265.519531 110.234375 266.074219 110.113281 C 266.625 109.988281 267.085938 109.859375 267.46875 109.792969 C 268.222656 109.640625 268.613281 109.5625 268.613281 109.5625 C 268.613281 109.5625 268.109375 109.605469 267.132812 109.691406 C 266.648438 109.753906 266.046875 109.832031 265.332031 109.925781 C 264.976562 109.980469 264.589844 110.046875 264.179688 110.113281 C 263.765625 110.175781 263.332031 110.257812 262.871094 110.355469 C 261.015625 110.71875 258.75 111.269531 256.160156 112.128906 C 253.574219 112.988281 250.652344 114.136719 247.519531 115.683594 C 251.574219 113.332031 255.636719 111.441406 259.601562 110.066406 C 261.582031 109.382812 263.539062 108.824219 265.449219 108.378906 C 267.359375 107.929688 269.230469 107.632812 271.027344 107.417969 C 271.484375 107.367188 271.929688 107.320312 272.371094 107.273438 C 272.8125 107.242188 273.25 107.214844 273.683594 107.183594 C 274.117188 107.148438 274.542969 107.136719 274.96875 107.125 C 275.390625 107.117188 275.808594 107.09375 276.226562 107.097656 C 277.050781 107.109375 277.859375 107.097656 278.640625 107.152344 C 279.035156 107.171875 279.421875 107.195312 279.800781 107.214844 C 280.183594 107.25 280.554688 107.285156 280.925781 107.316406 C 283.875 107.601562 286.433594 108.136719 288.546875 108.71875 C 291.753906 109.625 294.707031 110.859375 297.382812 112.230469 C 298.046875 112.582031 298.71875 112.910156 299.34375 113.28125 C 299.976562 113.648438 300.605469 113.988281 301.210938 114.386719 C 301.824219 114.773438 302.429688 115.148438 303 115.558594 C 303.289062 115.761719 303.574219 115.960938 303.855469 116.160156 C 304.136719 116.363281 304.40625 116.578125 304.675781 116.78125 C 309.011719 120.105469 312.113281 123.828125 314.253906 127.113281 C 316.382812 130.414062 317.617188 133.253906 318.363281 135.203125 C 318.5625 135.6875 318.703125 136.125 318.835938 136.503906 C 318.964844 136.878906 319.074219 137.195312 319.160156 137.449219 C 319.316406 137.964844 319.398438 138.230469 319.398438 138.230469 C 319.398438 138.230469 319.351562 137.996094 319.261719 137.539062 C 319.164062 137.085938 319 136.414062 318.78125 135.53125 C 318.65625 135.09375 318.511719 134.605469 318.359375 134.066406 C 318.203125 133.523438 317.988281 132.945312 317.777344 132.3125 C 317.566406 131.679688 317.285156 131.015625 317.007812 130.296875 C 316.859375 129.9375 316.691406 129.574219 316.527344 129.199219 C 316.359375 128.824219 316.195312 128.433594 315.992188 128.046875 C 315.796875 127.65625 315.59375 127.257812 315.386719 126.84375 C 315.171875 126.433594 314.9375 126.027344 314.699219 125.601562 C 314.578125 125.390625 314.460938 125.175781 314.332031 124.960938 C 314.199219 124.75 314.066406 124.535156 313.933594 124.316406 C 313.660156 123.886719 313.398438 123.433594 313.085938 123 C 311.902344 121.222656 310.453125 119.386719 308.726562 117.574219 C 307.003906 115.757812 304.996094 113.96875 302.699219 112.304688 C 302.125 111.875 301.542969 111.492188 300.957031 111.097656 C 300.660156 110.90625 300.367188 110.699219 300.0625 110.507812 C 299.753906 110.320312 299.445312 110.128906 299.132812 109.9375 C 298.820312 109.746094 298.507812 109.558594 298.1875 109.363281 C 297.863281 109.183594 297.535156 109 297.207031 108.816406 C 296.875 108.636719 296.546875 108.445312 296.207031 108.269531 C 295.863281 108.097656 295.519531 107.921875 295.171875 107.75 C 297.648438 108.902344 300.03125 110.246094 302.332031 111.753906 C 304.6875 113.304688 306.9375 115.097656 309.007812 117.117188 C 312.363281 120.367188 315.132812 124.148438 317.253906 128.167969 C 319.371094 132.199219 320.804688 136.484375 321.636719 140.777344 C 322.4375 145.078125 322.667969 149.390625 322.339844 153.558594 C 322.277344 154.605469 322.140625 155.636719 322.019531 156.660156 C 321.941406 157.175781 321.863281 157.683594 321.785156 158.191406 C 321.714844 158.699219 321.597656 159.199219 321.503906 159.703125 L 321.359375 160.453125 L 321.1875 161.195312 C 321.070312 161.6875 320.960938 162.183594 320.835938 162.667969 C 320.703125 163.160156 320.566406 163.640625 320.433594 164.125 C 320.304688 164.613281 320.140625 165.082031 319.992188 165.558594 C 317.582031 173.152344 313.519531 179.789062 308.933594 185.097656 C 306.636719 187.753906 304.21875 190.101562 301.796875 192.191406 C 299.375 194.28125 296.949219 196.117188 294.59375 197.761719 C 292.238281 199.40625 289.941406 200.847656 287.753906 202.148438 C 285.566406 203.445312 283.488281 204.613281 281.535156 205.648438 C 277.636719 207.730469 274.257812 209.363281 271.519531 210.683594 C 268.777344 211.996094 266.660156 212.980469 265.238281 213.652344 C 263.816406 214.320312 263.070312 214.671875 263.070312 214.671875 C 263.070312 214.671875 263.851562 214.402344 265.335938 213.894531 C 266.824219 213.375 269.023438 212.609375 271.886719 211.554688 C 274.746094 210.492188 278.269531 209.160156 282.371094 207.371094 C 284.421875 206.484375 286.617188 205.464844 288.933594 204.308594 C 291.253906 203.148438 293.703125 201.839844 296.238281 200.300781 C 298.777344 198.765625 301.40625 197.019531 304.066406 194.976562 C 306.722656 192.929688 309.410156 190.589844 312.003906 187.878906 C 314.585938 185.160156 317.066406 182.058594 319.261719 178.589844 C 319.535156 178.152344 319.820312 177.726562 320.078125 177.277344 C 320.339844 176.828125 320.59375 176.375 320.855469 175.925781 L 321.242188 175.242188 C 321.367188 175.011719 321.484375 174.777344 321.601562 174.542969 C 321.84375 174.074219 322.082031 173.605469 322.328125 173.132812 C 322.574219 172.664062 322.777344 172.175781 323.003906 171.691406 C 323.21875 171.207031 323.441406 170.714844 323.660156 170.226562 C 324.058594 169.226562 324.484375 168.230469 324.835938 167.191406 C 325.015625 166.675781 325.210938 166.164062 325.375 165.636719 C 325.535156 165.109375 325.699219 164.582031 325.863281 164.050781 C 326.023438 163.519531 326.160156 162.976562 326.308594 162.4375 L 326.519531 161.625 L 326.707031 160.800781 C 326.828125 160.25 326.964844 159.703125 327.0625 159.144531 C 327.167969 158.582031 327.269531 158.023438 327.371094 157.460938 C 327.542969 156.328125 327.71875 155.191406 327.820312 154.03125 C 328.300781 149.414062 328.160156 144.585938 327.347656 139.734375 C 326.492188 134.890625 324.945312 130.015625 322.578125 125.40625 C 320.207031 120.8125 317.0625 116.476562 313.238281 112.777344 " fill-opacity="1" fill-rule="nonzero"/></g></g></g><g fill="#fffcf6" fill-opacity="1"><g transform="translate(184.686774, 234.865941)"><g><path d="M 6.640625 -23.5625 C 6.953125 -23.71875 7.382812 -23.628906 7.9375 -23.296875 C 8.5 -22.972656 8.78125 -22.671875 8.78125 -22.390625 L 8.78125 -21.65625 C 8.78125 -19.738281 7.910156 -18.78125 6.171875 -18.78125 L 5.6875 -18.78125 C 5.445312 -18.78125 5.207031 -19.019531 4.96875 -19.5 L 4.96875 -20.921875 C 5.769531 -22.535156 6.328125 -23.414062 6.640625 -23.5625 Z M 4.265625 -17.84375 C 6.003906 -17.46875 6.875 -16.671875 6.875 -15.453125 L 6.875 -14.75 C 4.476562 -10.664062 3.28125 -7.878906 3.28125 -6.390625 C 3.644531 -5.910156 4.003906 -5.671875 4.359375 -5.671875 C 4.710938 -5.671875 5.304688 -5.867188 6.140625 -6.265625 C 6.984375 -6.671875 8.785156 -8.179688 11.546875 -10.796875 C 11.867188 -10.753906 12.03125 -10.585938 12.03125 -10.296875 C 12.03125 -9.847656 11.082031 -8.828125 9.1875 -7.234375 C 7.289062 -5.640625 5.648438 -4.796875 4.265625 -4.703125 C 2.453125 -4.703125 1.253906 -6.050781 0.671875 -8.75 L 0.671875 -9.265625 C 0.671875 -10.335938 1.628906 -12.882812 3.546875 -16.90625 C 3.628906 -17.53125 3.867188 -17.84375 4.265625 -17.84375 Z M 4.265625 -17.84375 "/></g></g></g><g fill="#fffcf6" fill-opacity="1"><g transform="translate(195.848311, 234.865941)"><g><path d="M 9.6875 -22.765625 L 13.765625 -22.765625 C 15.222656 -22.003906 15.953125 -21.457031 15.953125 -21.125 C 15.460938 -20.425781 13.753906 -19.835938 10.828125 -19.359375 C 7.898438 -18.878906 6.164062 -16.476562 5.625 -12.15625 L 5.625 -11.328125 C 5.625 -10.585938 5.878906 -9.851562 6.390625 -9.125 C 6.898438 -8.40625 7.816406 -8.046875 9.140625 -8.046875 L 9.421875 -8.046875 C 11.066406 -8.078125 14.226562 -9.410156 18.90625 -12.046875 L 19.140625 -11.5 L 19.140625 -10.96875 C 15.085938 -7.382812 11.488281 -5.59375 8.34375 -5.59375 C 3.070312 -6.382812 0.4375 -8.660156 0.4375 -12.421875 C 1.332031 -16.242188 2.875 -18.96875 5.0625 -20.59375 C 7.164062 -22.039062 8.707031 -22.765625 9.6875 -22.765625 Z M 9.6875 -22.765625 "/></g></g></g><g fill="#fffcf6" fill-opacity="1"><g transform="translate(214.603539, 234.865941)"><g><path d="M 9.359375 -34.84375 L 10.734375 -34.84375 C 12.984375 -33.695312 14.4375 -32.425781 15.09375 -31.03125 L 15.59375 -30.203125 L 15.59375 -29.09375 L 15.359375 -25.84375 C 20.429688 -25.84375 23.957031 -26.289062 25.9375 -27.1875 L 26.671875 -27.484375 C 27.796875 -27.992188 27.890625 -27.34375 26.953125 -25.53125 C 26.023438 -23.726562 23.992188 -22.46875 20.859375 -21.75 C 17.722656 -21.039062 15.332031 -20.863281 13.6875 -21.21875 C 9.894531 -13.738281 8 -8.5625 8 -5.6875 L 8 -3.28125 C 8 -3.007812 8.222656 -2.519531 8.671875 -1.8125 C 9.128906 -1.101562 9.898438 -0.75 10.984375 -0.75 C 12.066406 -0.75 13.226562 -1.015625 14.46875 -1.546875 C 15.71875 -2.085938 16.914062 -2.84375 18.0625 -3.8125 L 18.609375 -2.984375 L 18.609375 -2.4375 C 18.609375 -1.4375 16.429688 -0.253906 12.078125 1.109375 L 10.734375 1.109375 C 7.335938 1.109375 4.789062 -1.242188 3.09375 -5.953125 L 2.53125 -8.40625 L 2.53125 -11.40625 C 2.53125 -14.101562 3.445312 -17.734375 5.28125 -22.296875 L 5.28125 -22.5625 C 4.507812 -22.769531 3.0625 -23.316406 0.9375 -24.203125 C -1.644531 -25.554688 -3.285156 -26.828125 -3.984375 -28.015625 L -3.421875 -28.296875 C -0.578125 -27.554688 2.046875 -27.015625 4.453125 -26.671875 L 6.09375 -26.671875 L 6.625 -26.40625 C 7.894531 -29.113281 8.71875 -31.289062 9.09375 -32.9375 L 9.09375 -33.203125 L 8.796875 -34.546875 Z M 9.359375 -34.84375 "/></g></g></g><g fill="#fffcf6" fill-opacity="1"><g transform="translate(233.141811, 234.865941)"><g><path d="M 13.15625 -22.484375 C 14.570312 -22.910156 15.320312 -23.039062 15.40625 -22.875 C 15.488281 -22.71875 15.53125 -22.410156 15.53125 -21.953125 C 15.53125 -21.492188 14.390625 -20.941406 12.109375 -20.296875 C 13.117188 -18.066406 13.625 -16.617188 13.625 -15.953125 C 13.625 -15.285156 13.625 -14.875 13.625 -14.71875 C 13.625 -14.5625 13.328125 -13.503906 12.734375 -11.546875 C 12.140625 -9.597656 11.222656 -8.195312 9.984375 -7.34375 C 8.742188 -6.5 7.628906 -5.972656 6.640625 -5.765625 C 5.648438 -5.554688 5.019531 -5.453125 4.75 -5.453125 C 4.476562 -5.453125 3.945312 -5.453125 3.15625 -5.453125 C 2.375 -5.453125 1.679688 -5.878906 1.078125 -6.734375 C 0.484375 -7.597656 0.125 -8.648438 0 -9.890625 C -0.125 -11.140625 0.046875 -12.875 0.515625 -15.09375 C 0.992188 -17.320312 1.785156 -18.988281 2.890625 -20.09375 C 4.003906 -21.207031 4.582031 -21.765625 4.625 -21.765625 C 4.675781 -21.765625 5.09375 -21.835938 5.875 -21.984375 C 6.65625 -22.128906 7.710938 -22.140625 9.046875 -22.015625 C 10.378906 -21.898438 11.75 -22.054688 13.15625 -22.484375 Z M 4.65625 -11.765625 C 4.65625 -10.347656 4.65625 -9.457031 4.65625 -9.09375 C 4.65625 -8.738281 4.921875 -8.460938 5.453125 -8.265625 C 5.984375 -8.078125 6.597656 -8.210938 7.296875 -8.671875 C 8.003906 -9.128906 8.582031 -9.921875 9.03125 -11.046875 C 9.488281 -12.171875 9.71875 -13.164062 9.71875 -14.03125 C 9.71875 -14.894531 9.71875 -15.363281 9.71875 -15.4375 C 9.71875 -15.507812 9.6875 -16.144531 9.625 -17.34375 C 9.570312 -18.539062 9.265625 -19.300781 8.703125 -19.625 L 8.171875 -19.625 C 7.109375 -19.625 6.382812 -19.195312 6 -18.34375 C 5.613281 -17.488281 5.289062 -16.53125 5.03125 -15.46875 C 4.78125 -14.414062 4.65625 -13.179688 4.65625 -11.765625 Z M 4.65625 -11.765625 "/></g></g></g><g fill="#fffcf6" fill-opacity="1"><g transform="translate(248.088137, 234.865941)"><g><path d="M 3.859375 -23.53125 C 6.078125 -22.5 7.1875 -21.164062 7.1875 -19.53125 L 7.1875 -17.546875 C 9.40625 -19.910156 12.273438 -21.09375 15.796875 -21.09375 C 18.140625 -21.09375 20.203125 -20.128906 21.984375 -18.203125 C 22.273438 -17.441406 21.988281 -17.070312 21.125 -17.09375 C 21.007812 -17.09375 20.566406 -17.171875 19.796875 -17.328125 C 14.316406 -18.796875 10.144531 -16.066406 7.28125 -9.140625 C 5.738281 -3.867188 4.671875 -0.0976562 4.078125 2.171875 L 3.609375 2.390625 L 3.1875 2.390625 C -0.320312 1.554688 -1.648438 -1.179688 -0.796875 -5.828125 C 1.273438 -10.398438 2.742188 -14.453125 3.609375 -17.984375 C 3.984375 -18.398438 4.285156 -19.359375 4.515625 -20.859375 C 3.703125 -21.816406 2.582031 -22.148438 1.15625 -21.859375 C -0.257812 -21.578125 -0.898438 -21.75 -0.765625 -22.375 C -0.640625 -23 0.015625 -23.3125 1.203125 -23.3125 C 2.234375 -23.457031 3.117188 -23.53125 3.859375 -23.53125 Z M 3.859375 -23.53125 "/></g></g></g><g fill="#fffcf6" fill-opacity="1"><g transform="translate(270.700483, 234.865941)"><g><path d="M 2.671875 10.171875 C 0.890625 6.890625 1.300781 5.898438 3.90625 7.203125 C 6.519531 8.503906 8.582031 8.539062 10.09375 7.3125 C 11.613281 6.082031 13.519531 0.148438 15.8125 -10.484375 L 15.640625 -10.46875 C 12.472656 -6.28125 9.582031 -4.25 6.96875 -4.375 C 4.363281 -4.507812 2.613281 -6.222656 1.71875 -9.515625 C 1.226562 -11.285156 1.269531 -14.296875 1.84375 -18.546875 C 2.425781 -22.796875 3.222656 -25.382812 4.234375 -26.3125 C 5.253906 -27.238281 6.375 -27.019531 7.59375 -25.65625 C 9.019531 -23.519531 8.941406 -17.765625 7.359375 -8.390625 L 7.359375 -8.046875 C 9.109375 -8.742188 10.925781 -9.882812 12.8125 -11.46875 C 14.695312 -13.050781 16.210938 -15.582031 17.359375 -19.0625 C 18.515625 -22.539062 19.4375 -24.582031 20.125 -25.1875 L 20.859375 -25.234375 C 23.148438 -25.660156 23.976562 -23.671875 23.34375 -19.265625 C 21.15625 -1.203125 17.609375 9.039062 12.703125 11.46875 C 7.804688 13.894531 4.460938 13.460938 2.671875 10.171875 Z M 2.671875 10.171875 "/></g></g></g></svg>